<svg width="235" height="97" viewBox="0 0 235 97" fill="none" xmlns="http://www.w3.org/2000/svg">
<g clip-path="url(#clip0_178_14)">
<path fill-rule="evenodd" clip-rule="evenodd" d="M3.91915 48.0915L8.24148 21.2394L5.54785 17.7661L0.682617 48.0915H3.91915Z" fill="url(#paint0_linear_178_14)"/>
<path fill-rule="evenodd" clip-rule="evenodd" d="M8.2413 21.2393L3.91895 48.0913H7.17636L10.9349 24.6886L8.2413 21.2393Z" fill="url(#paint1_linear_178_14)"/>
<path fill-rule="evenodd" clip-rule="evenodd" d="M8.24146 21.239L117.511 12.3043V8.63934L5.54785 17.7657L8.24146 21.239Z" fill="url(#paint2_linear_178_14)"/>
<path fill-rule="evenodd" clip-rule="evenodd" d="M117.512 12.3033L8.24219 21.2381L10.9358 24.6874L117.512 15.9922V12.3033Z" fill="url(#paint3_linear_178_14)"/>
<path fill-rule="evenodd" clip-rule="evenodd" d="M231.06 48.0904L226.759 21.2383L229.453 17.765L234.318 48.0904H231.06Z" fill="url(#paint4_linear_178_14)"/>
<path fill-rule="evenodd" clip-rule="evenodd" d="M226.76 21.2393L231.061 48.0913H227.825L224.066 24.6886L226.76 21.2393Z" fill="url(#paint5_linear_178_14)"/>
<path fill-rule="evenodd" clip-rule="evenodd" d="M226.76 21.239L117.512 12.3043V8.63934L229.454 17.7657L226.76 21.239Z" fill="url(#paint6_linear_178_14)"/>
<path fill-rule="evenodd" clip-rule="evenodd" d="M117.512 12.3033L226.76 21.2381L224.067 24.6874L117.512 15.9922V12.3033Z" fill="url(#paint7_linear_178_14)"/>
<path fill-rule="evenodd" clip-rule="evenodd" d="M3.91915 48.0912L8.24148 74.9431L5.54785 78.3926L0.682617 48.0912H3.91915Z" fill="url(#paint8_linear_178_14)"/>
<path fill-rule="evenodd" clip-rule="evenodd" d="M8.2413 74.9418L3.91895 48.0899H7.17636L10.9349 71.4926L8.2413 74.9418Z" fill="url(#paint9_linear_178_14)"/>
<path fill-rule="evenodd" clip-rule="evenodd" d="M8.24146 74.9432L117.511 83.8542V87.5431L5.54785 78.3927L8.24146 74.9432Z" fill="url(#paint10_linear_178_14)"/>
<path fill-rule="evenodd" clip-rule="evenodd" d="M117.512 83.8535L8.24219 74.9428L10.9358 71.4935L117.512 80.1888V83.8535Z" fill="url(#paint11_linear_178_14)"/>
<path fill-rule="evenodd" clip-rule="evenodd" d="M231.06 48.0896L226.759 74.9415L229.453 78.391L234.318 48.0896H231.06Z" fill="url(#paint12_linear_178_14)"/>
<path fill-rule="evenodd" clip-rule="evenodd" d="M226.76 74.9418L231.061 48.0899H227.825L224.066 71.4926L226.76 74.9418Z" fill="url(#paint13_linear_178_14)"/>
<path fill-rule="evenodd" clip-rule="evenodd" d="M226.76 74.9432L117.512 83.8542V87.5431L229.454 78.3927L226.76 74.9432Z" fill="url(#paint14_linear_178_14)"/>
<path fill-rule="evenodd" clip-rule="evenodd" d="M117.512 83.8535L226.76 74.9428L224.067 71.4935L117.512 80.1888V83.8535Z" fill="url(#paint15_linear_178_14)"/>
<g style="mix-blend-mode:screen">
<path fill-rule="evenodd" clip-rule="evenodd" d="M7.13458 28.0649L7.86542 21.334L5.77734 18.196L8.3039 20.8788L112.708 12.0639C116.195 11.7525 116.759 11.2734 117.406 9.04572L117.845 11.6327L200.93 19.1302L117.406 12.3034L8.15772 21.2381L7.05103 28.0649H7.13458Z" fill="white"/>
</g>
<g style="mix-blend-mode:multiply" opacity="0.75">
<path fill-rule="evenodd" clip-rule="evenodd" d="M119.766 86.968C118.534 86.968 117.553 86.7286 117.553 85.8663V87.5431L229.516 78.3927L226.822 74.9432C227.553 76.8358 227.887 77.6022 225.131 77.8418L119.766 86.968Z" fill="#CA9E67"/>
</g>
<path fill-rule="evenodd" clip-rule="evenodd" d="M117.511 80.188L224.066 71.4927L227.825 48.09L224.066 24.6872L117.511 15.992L10.9353 24.6872L7.17676 48.09L10.9353 71.4927L117.511 80.188Z" fill="url(#paint16_linear_178_14)"/>
<path fill-rule="evenodd" clip-rule="evenodd" d="M117.511 74.3199L219.765 65.9604L222.625 48.0907L219.765 30.1975L117.511 21.8615L15.2367 30.1975L12.376 48.0907L15.2367 65.9604L117.511 74.3199Z" fill="#FFCB05"/>
<path fill-rule="evenodd" clip-rule="evenodd" d="M117.51 21.8607V15.992L10.9346 24.6872L15.236 30.1965L117.51 21.8607Z" fill="url(#paint17_linear_178_14)"/>
<path style="mix-blend-mode:screen" opacity="0.5" fill-rule="evenodd" clip-rule="evenodd" d="M12.3761 48.0903L15.2368 30.1971L10.9353 24.6876L7.17676 48.0903H12.3761Z" fill="url(#paint18_linear_178_14)"/>
<path style="mix-blend-mode:multiply" fill-rule="evenodd" clip-rule="evenodd" d="M15.2368 65.9592L12.3761 48.0899H7.17676L10.9353 71.4926L15.2368 65.9592Z" fill="url(#paint19_linear_178_14)"/>
<path style="mix-blend-mode:screen" opacity="0.5" fill-rule="evenodd" clip-rule="evenodd" d="M222.625 48.0903L219.765 30.1971L224.066 24.6876L227.825 48.0903H222.625Z" fill="url(#paint20_linear_178_14)"/>
<path style="mix-blend-mode:multiply" fill-rule="evenodd" clip-rule="evenodd" d="M219.765 65.9592L222.625 48.0899H227.825L224.066 71.4926L219.765 65.9592Z" fill="url(#paint21_linear_178_14)"/>
<path fill-rule="evenodd" clip-rule="evenodd" d="M117.512 21.8607V15.992L224.067 24.6872L219.765 30.1965L117.512 21.8607Z" fill="url(#paint22_linear_178_14)"/>
<g style="mix-blend-mode:multiply">
<path fill-rule="evenodd" clip-rule="evenodd" d="M117.51 74.3191V80.1878L10.9346 71.4926L15.236 65.9592L117.51 74.3191Z" fill="#F9AF1E"/>
</g>
<g style="mix-blend-mode:multiply">
<path fill-rule="evenodd" clip-rule="evenodd" d="M117.512 74.3191V80.1878L224.067 71.4926L219.765 65.9592L117.512 74.3191Z" fill="#F9AF1E"/>
</g>
<path style="mix-blend-mode:screen" fill-rule="evenodd" clip-rule="evenodd" d="M12.9188 44.7369L14.5684 30.2689L11.5615 25.4782L15.5289 29.4786L116.655 20.3282L117.511 16.3998L118.263 20.3042L212.79 29.6222L117.511 21.8612L15.2366 30.197L12.9188 44.7369Z" fill="url(#paint23_radial_178_14)"/>
<path style="mix-blend-mode:screen" fill-rule="evenodd" clip-rule="evenodd" d="M222.625 48.0907L219.765 30.1975L117.511 21.8615L15.2367 30.1975L12.376 48.0907H222.625Z" fill="url(#paint24_radial_178_14)"/>
<g style="mix-blend-mode:screen">
<path style="mix-blend-mode:screen" fill-rule="evenodd" clip-rule="evenodd" d="M13.5037 48.2818L84.269 48.09L13.5455 47.8985C12.9818 47.8985 12.7103 47.6828 12.8147 46.9883L13.6082 40.6644L12.418 48.09L13.6082 55.5157L12.8147 49.1918C12.6685 48.4973 12.94 48.2818 13.5037 48.2818ZM221.435 55.4678L222.626 48.0422L221.435 40.6165L222.229 46.9404C222.229 47.6349 222.062 47.8507 221.477 47.8507L150.775 48.09L221.477 48.2818C222.062 48.2818 222.312 48.4973 222.229 49.1918L221.435 55.4678Z" fill="url(#paint25_radial_178_14)"/>
</g>
<path style="mix-blend-mode:screen" fill-rule="evenodd" clip-rule="evenodd" d="M117.511 48.0907V21.8615L15.2367 30.1975L12.376 48.0907H222.625H117.511Z" fill="url(#paint26_radial_178_14)"/>
<g style="mix-blend-mode:screen" opacity="0.5">
<path fill-rule="evenodd" clip-rule="evenodd" d="M117.511 48.0899V74.3191L219.765 65.9592L222.625 48.0899H12.376H117.511Z" fill="#FFCB05"/>
</g>
<path style="mix-blend-mode:screen" fill-rule="evenodd" clip-rule="evenodd" d="M103.792 73.194L116.968 74.9906L117.511 79.6615L117.949 74.9427L219.743 66.5828L223.293 70.5114L220.286 65.9601L222.521 48.7135L219.764 65.9601L117.511 74.32L103.792 73.194Z" fill="url(#paint27_radial_178_14)"/>
</g>
<defs>
<linearGradient id="paint0_linear_178_14" x1="4.46205" y1="48.0915" x2="4.46205" y2="17.7661" gradientUnits="userSpaceOnUse">
<stop stop-color="#FFD97A"/>
<stop offset="1" stop-color="#EB9E21"/>
</linearGradient>
<linearGradient id="paint1_linear_178_14" x1="7.42694" y1="48.0913" x2="7.42694" y2="21.2393" gradientUnits="userSpaceOnUse">
<stop stop-color="#E8B048"/>
<stop offset="1" stop-color="#8F6B09"/>
</linearGradient>
<linearGradient id="paint2_linear_178_14" x1="5.54785" y1="14.9392" x2="117.49" y2="14.9392" gradientUnits="userSpaceOnUse">
<stop stop-color="#F5D36C"/>
<stop offset="1" stop-color="#FFF5B0"/>
</linearGradient>
<linearGradient id="paint3_linear_178_14" x1="403.798" y1="243.266" x2="6120.77" y2="243.266" gradientUnits="userSpaceOnUse">
<stop stop-color="#6B4200"/>
<stop offset="1" stop-color="#A87219"/>
</linearGradient>
<linearGradient id="paint4_linear_178_14" x1="1058.84" y1="958.156" x2="1058.84" y2="574.235" gradientUnits="userSpaceOnUse">
<stop stop-color="#FFD97A"/>
<stop offset="1" stop-color="#EB9E21"/>
</linearGradient>
<linearGradient id="paint5_linear_178_14" x1="984.15" y1="853.922" x2="984.15" y2="552.911" gradientUnits="userSpaceOnUse">
<stop stop-color="#E8B048"/>
<stop offset="1" stop-color="#8F6B09"/>
</linearGradient>
<linearGradient id="paint6_linear_178_14" x1="117.491" y1="14.9392" x2="229.454" y2="14.9392" gradientUnits="userSpaceOnUse">
<stop stop-color="#FFDD6E"/>
<stop offset="1" stop-color="#D69705"/>
</linearGradient>
<linearGradient id="paint7_linear_178_14" x1="117.491" y1="18.4834" x2="226.76" y2="18.4834" gradientUnits="userSpaceOnUse">
<stop stop-color="#BF8800"/>
<stop offset="1" stop-color="#A36808"/>
</linearGradient>
<linearGradient id="paint8_linear_178_14" x1="4.46205" y1="78.3926" x2="4.46205" y2="48.0912" gradientUnits="userSpaceOnUse">
<stop stop-color="#E8B048"/>
<stop offset="1" stop-color="#C27C0C"/>
</linearGradient>
<linearGradient id="paint9_linear_178_14" x1="7.42694" y1="74.9418" x2="7.42694" y2="48.0899" gradientUnits="userSpaceOnUse">
<stop stop-color="#FFD97A"/>
<stop offset="1" stop-color="#FCBC53"/>
</linearGradient>
<linearGradient id="paint10_linear_178_14" x1="5.54785" y1="81.2432" x2="117.49" y2="81.2432" gradientUnits="userSpaceOnUse">
<stop stop-color="#A36808"/>
<stop offset="1" stop-color="#BF8800"/>
</linearGradient>
<linearGradient id="paint11_linear_178_14" x1="403.798" y1="607.427" x2="6120.77" y2="607.427" gradientUnits="userSpaceOnUse">
<stop stop-color="#D69705"/>
<stop offset="1" stop-color="#FFDD6E"/>
</linearGradient>
<linearGradient id="paint12_linear_178_14" x1="1058.84" y1="1371.05" x2="1058.84" y2="987.737" gradientUnits="userSpaceOnUse">
<stop stop-color="#E8B048"/>
<stop offset="1" stop-color="#C27C0C"/>
</linearGradient>
<linearGradient id="paint13_linear_178_14" x1="984.15" y1="1181.78" x2="984.15" y2="880.773" gradientUnits="userSpaceOnUse">
<stop stop-color="#FFD97A"/>
<stop offset="1" stop-color="#FCBC53"/>
</linearGradient>
<linearGradient id="paint14_linear_178_14" x1="117.491" y1="81.2432" x2="229.454" y2="81.2432" gradientUnits="userSpaceOnUse">
<stop stop-color="#A87219"/>
<stop offset="1" stop-color="#6B4200"/>
</linearGradient>
<linearGradient id="paint15_linear_178_14" x1="117.491" y1="77.6735" x2="226.76" y2="77.6735" gradientUnits="userSpaceOnUse">
<stop stop-color="#FFF5B0"/>
<stop offset="1" stop-color="#F5D36C"/>
</linearGradient>
<linearGradient id="paint16_linear_178_14" x1="117.49" y1="80.188" x2="117.49" y2="15.9681" gradientUnits="userSpaceOnUse">
<stop stop-color="#FAB925"/>
<stop offset="1" stop-color="#FAB925"/>
</linearGradient>
<linearGradient id="paint17_linear_178_14" x1="534.222" y1="308.179" x2="5972.78" y2="308.179" gradientUnits="userSpaceOnUse">
<stop stop-color="#FAB925"/>
<stop offset="1" stop-color="#FAB925"/>
</linearGradient>
<linearGradient id="paint18_linear_178_14" x1="11.2068" y1="48.0903" x2="11.2068" y2="24.6876" gradientUnits="userSpaceOnUse">
<stop stop-color="#FAB925"/>
<stop offset="0.93" stop-color="#FAB925"/>
</linearGradient>
<linearGradient id="paint19_linear_178_14" x1="11.2068" y1="71.4926" x2="11.2068" y2="48.0899" gradientUnits="userSpaceOnUse">
<stop stop-color="#FAB925"/>
<stop offset="1" stop-color="white"/>
</linearGradient>
<linearGradient id="paint20_linear_178_14" x1="1080.98" y1="750.407" x2="1080.98" y2="521.762" gradientUnits="userSpaceOnUse">
<stop stop-color="#FAB925"/>
<stop offset="0.93" stop-color="#FAB925"/>
</linearGradient>
<linearGradient id="paint21_linear_178_14" x1="1080.98" y1="1002.46" x2="1080.98" y2="773.81" gradientUnits="userSpaceOnUse">
<stop stop-color="#FAB925"/>
<stop offset="1" stop-color="white"/>
</linearGradient>
<linearGradient id="paint22_linear_178_14" x1="6078.2" y1="308.179" x2="11516.8" y2="308.179" gradientUnits="userSpaceOnUse">
<stop stop-color="#FAB925"/>
<stop offset="1" stop-color="#FAB925"/>
</linearGradient>
<radialGradient id="paint23_radial_178_14" cx="0" cy="0" r="1" gradientUnits="userSpaceOnUse" gradientTransform="translate(38.9154 27.0352) scale(155.166 178)">
<stop stop-color="#FAB925"/>
<stop offset="1" stop-color="#000817"/>
</radialGradient>
<radialGradient id="paint24_radial_178_14" cx="0" cy="0" r="1" gradientUnits="userSpaceOnUse" gradientTransform="translate(117.49 8.35165) scale(182.875 209.786)">
<stop stop-color="#000817"/>
<stop offset="1" stop-color="#FAB925"/>
</radialGradient>
<radialGradient id="paint25_radial_178_14" cx="0" cy="0" r="1" gradientUnits="userSpaceOnUse" gradientTransform="translate(117.49 48.09) scale(105.344 120.846)">
<stop offset="0.59" stop-color="#000817"/>
<stop offset="1" stop-color="#FAB925"/>
</radialGradient>
<radialGradient id="paint26_radial_178_14" cx="0" cy="0" r="1" gradientUnits="userSpaceOnUse" gradientTransform="translate(11622.4 1821.19) scale(12827.3 1600.25)">
<stop stop-color="#FAB925"/>
<stop offset="1" stop-color="#000817"/>
</radialGradient>
<radialGradient id="paint27_radial_178_14" cx="0" cy="0" r="1" gradientUnits="userSpaceOnUse" gradientTransform="translate(11357.2 1456.54) scale(4979.62 1289.61)">
<stop stop-color="#FAB925"/>
<stop offset="1" stop-color="#000817"/>
</radialGradient>
<clipPath id="clip0_178_14">
<rect width="233.636" height="95.76" fill="white" transform="translate(0.682617 0.468506)"/>
</clipPath>
</defs>
</svg>
