<svg width="267" height="96" viewBox="0 0 267 96" fill="none" xmlns="http://www.w3.org/2000/svg">
<g clip-path="url(#clip0_162_301)">
<path fill-rule="evenodd" clip-rule="evenodd" d="M4.18487 47.6672L9.10595 20.8151L6.03918 17.3418L0.5 47.6672H4.18487Z" fill="url(#paint0_linear_162_301)"/>
<path fill-rule="evenodd" clip-rule="evenodd" d="M9.10592 20.8145L4.18481 47.6665H7.89347L12.1727 24.2638L9.10592 20.8145Z" fill="url(#paint1_linear_162_301)"/>
<path fill-rule="evenodd" clip-rule="evenodd" d="M9.10556 20.8145L133.512 11.8798V8.21484L6.03882 17.3412L9.10556 20.8145Z" fill="url(#paint2_linear_162_301)"/>
<path fill-rule="evenodd" clip-rule="evenodd" d="M133.513 11.8789L9.10645 20.8136L12.1732 24.263L133.513 15.5678V11.8789Z" fill="url(#paint3_linear_162_301)"/>
<path fill-rule="evenodd" clip-rule="evenodd" d="M262.791 47.6662L257.894 20.8141L260.961 17.3408L266.5 47.6662H262.791Z" fill="url(#paint4_linear_162_301)"/>
<path fill-rule="evenodd" clip-rule="evenodd" d="M257.894 20.8145L262.791 47.6665H259.107L254.827 24.2638L257.894 20.8145Z" fill="url(#paint5_linear_162_301)"/>
<path fill-rule="evenodd" clip-rule="evenodd" d="M257.895 20.8145L133.513 11.8798V8.21484L260.962 17.3412L257.895 20.8145Z" fill="url(#paint6_linear_162_301)"/>
<path fill-rule="evenodd" clip-rule="evenodd" d="M133.513 11.8789L257.895 20.8136L254.828 24.263L133.513 15.5678V11.8789Z" fill="url(#paint7_linear_162_301)"/>
<path fill-rule="evenodd" clip-rule="evenodd" d="M4.18487 47.667L9.10595 74.5189L6.03918 77.9684L0.5 47.667H4.18487Z" fill="url(#paint8_linear_162_301)"/>
<path fill-rule="evenodd" clip-rule="evenodd" d="M9.10592 74.5169L4.18481 47.665H7.89347L12.1727 71.0677L9.10592 74.5169Z" fill="url(#paint9_linear_162_301)"/>
<path fill-rule="evenodd" clip-rule="evenodd" d="M9.10556 74.5186L133.512 83.4296V87.1184L6.03882 77.968L9.10556 74.5186Z" fill="url(#paint10_linear_162_301)"/>
<path fill-rule="evenodd" clip-rule="evenodd" d="M133.513 83.4293L9.10645 74.5186L12.1732 71.0693L133.513 79.7646V83.4293Z" fill="url(#paint11_linear_162_301)"/>
<path fill-rule="evenodd" clip-rule="evenodd" d="M262.791 47.665L257.894 74.5169L260.961 77.9664L266.5 47.665H262.791Z" fill="url(#paint12_linear_162_301)"/>
<path fill-rule="evenodd" clip-rule="evenodd" d="M257.894 74.5169L262.791 47.665H259.107L254.827 71.0677L257.894 74.5169Z" fill="url(#paint13_linear_162_301)"/>
<path fill-rule="evenodd" clip-rule="evenodd" d="M257.895 74.5186L133.513 83.4296V87.1184L260.962 77.968L257.895 74.5186Z" fill="url(#paint14_linear_162_301)"/>
<path fill-rule="evenodd" clip-rule="evenodd" d="M133.513 83.4293L257.895 74.5186L254.828 71.0693L133.513 79.7646V83.4293Z" fill="url(#paint15_linear_162_301)"/>
<g style="mix-blend-mode:screen">
<path fill-rule="evenodd" clip-rule="evenodd" d="M7.84603 27.6403L8.6781 20.9093L6.30078 17.7714L9.17733 20.4542L128.044 11.6393C132.014 11.3279 132.656 10.8488 133.393 8.62109L133.892 11.2081L228.487 18.7056L133.393 11.8788L9.0109 20.8135L7.75091 27.6403H7.84603Z" fill="white"/>
</g>
<g style="mix-blend-mode:multiply" opacity="0.75">
<path fill-rule="evenodd" clip-rule="evenodd" d="M136.08 86.5434C134.677 86.5434 133.56 86.304 133.56 85.4416V87.1184L261.033 77.968L257.966 74.5186C258.798 76.4111 259.178 77.1775 256.04 77.4172L136.08 86.5434Z" fill="#CA9E67"/>
</g>
<path fill-rule="evenodd" clip-rule="evenodd" d="M133.512 79.7633L254.827 71.0681L259.106 47.6654L254.827 24.2626L133.512 15.5674L12.1725 24.2626L7.89331 47.6654L12.1725 71.0681L133.512 79.7633Z" fill="url(#paint16_linear_162_301)"/>
<path fill-rule="evenodd" clip-rule="evenodd" d="M133.512 73.895L249.93 65.5354L253.187 47.6658L249.93 29.7725L133.512 21.4365L17.0699 29.7725L13.813 47.6658L17.0699 65.5354L133.512 73.895Z" fill="#FFCB05"/>
<path fill-rule="evenodd" clip-rule="evenodd" d="M133.512 21.436V15.5674L12.1726 24.2626L17.0699 29.7718L133.512 21.436Z" fill="url(#paint17_linear_162_301)"/>
<path style="mix-blend-mode:screen" opacity="0.5" fill-rule="evenodd" clip-rule="evenodd" d="M13.8129 47.6654L17.0698 29.7721L12.1725 24.2627L7.89331 47.6654H13.8129Z" fill="url(#paint18_linear_162_301)"/>
<path style="mix-blend-mode:multiply" fill-rule="evenodd" clip-rule="evenodd" d="M17.0698 65.5344L13.8129 47.665H7.89331L12.1725 71.0677L17.0698 65.5344Z" fill="url(#paint19_linear_162_301)"/>
<path style="mix-blend-mode:screen" opacity="0.5" fill-rule="evenodd" clip-rule="evenodd" d="M253.187 47.6654L249.93 29.7721L254.828 24.2627L259.107 47.6654H253.187Z" fill="url(#paint20_linear_162_301)"/>
<path style="mix-blend-mode:multiply" fill-rule="evenodd" clip-rule="evenodd" d="M249.93 65.5344L253.187 47.665H259.107L254.828 71.0677L249.93 65.5344Z" fill="url(#paint21_linear_162_301)"/>
<path fill-rule="evenodd" clip-rule="evenodd" d="M133.513 21.436V15.5674L254.828 24.2626L249.931 29.7718L133.513 21.436Z" fill="url(#paint22_linear_162_301)"/>
<g style="mix-blend-mode:multiply">
<path fill-rule="evenodd" clip-rule="evenodd" d="M133.512 73.894V79.7628L12.1726 71.0675L17.0699 65.5342L133.512 73.894Z" fill="#F9AF1E"/>
</g>
<g style="mix-blend-mode:multiply">
<path fill-rule="evenodd" clip-rule="evenodd" d="M133.513 73.894V79.7628L254.828 71.0675L249.931 65.5342L133.513 73.894Z" fill="#F9AF1E"/>
</g>
<path style="mix-blend-mode:screen" fill-rule="evenodd" clip-rule="evenodd" d="M14.4313 44.3127L16.3094 29.8447L12.886 25.054L17.4029 29.0544L132.537 19.904L133.512 15.9756L134.368 19.88L241.99 29.198L133.512 21.437L17.0701 29.7728L14.4313 44.3127Z" fill="url(#paint23_radial_162_301)"/>
<path style="mix-blend-mode:screen" fill-rule="evenodd" clip-rule="evenodd" d="M253.187 47.6658L249.93 29.7725L133.512 21.4365L17.0699 29.7725L13.813 47.6658H253.187Z" fill="url(#paint24_radial_162_301)"/>
<g style="mix-blend-mode:screen">
<path style="mix-blend-mode:screen" fill-rule="evenodd" clip-rule="evenodd" d="M15.097 47.8577L95.665 47.6659L15.1446 47.4744C14.5027 47.4744 14.1937 47.2587 14.3125 46.5641L15.2159 40.2403L13.8608 47.6659L15.2159 55.0916L14.3125 48.7677C14.1461 48.0732 14.4551 47.8577 15.097 47.8577ZM251.832 55.0437L253.187 47.618L251.832 40.1924L252.736 46.5163C252.736 47.2108 252.545 47.4265 251.88 47.4265L171.383 47.6659L251.88 47.8577C252.545 47.8577 252.831 48.0732 252.736 48.7677L251.832 55.0437Z" fill="url(#paint25_radial_162_301)"/>
</g>
<path style="mix-blend-mode:screen" fill-rule="evenodd" clip-rule="evenodd" d="M133.512 47.6658V21.4365L17.0699 29.7725L13.813 47.6658H253.187H133.512Z" fill="url(#paint26_radial_162_301)"/>
<g style="mix-blend-mode:screen" opacity="0.5">
<path fill-rule="evenodd" clip-rule="evenodd" d="M133.512 47.665V73.8942L249.93 65.5344L253.187 47.665H13.813H133.512Z" fill="#FFCB05"/>
</g>
<path style="mix-blend-mode:screen" fill-rule="evenodd" clip-rule="evenodd" d="M117.892 72.7696L132.893 74.5661L133.511 79.2371L134.011 74.5183L249.906 66.1584L253.947 70.087L250.524 65.5357L253.067 48.2891L249.929 65.5357L133.511 73.8955L117.892 72.7696Z" fill="url(#paint27_radial_162_301)"/>
</g>
<defs>
<linearGradient id="paint0_linear_162_301" x1="4.80297" y1="47.6672" x2="4.80297" y2="17.3418" gradientUnits="userSpaceOnUse">
<stop stop-color="#FFD97A"/>
<stop offset="1" stop-color="#EB9E21"/>
</linearGradient>
<linearGradient id="paint1_linear_162_301" x1="8.17875" y1="47.6665" x2="8.17875" y2="20.8145" gradientUnits="userSpaceOnUse">
<stop stop-color="#E8B048"/>
<stop offset="1" stop-color="#8F6B09"/>
</linearGradient>
<linearGradient id="paint2_linear_162_301" x1="6.03882" y1="14.5147" x2="133.488" y2="14.5147" gradientUnits="userSpaceOnUse">
<stop stop-color="#F5D36C"/>
<stop offset="1" stop-color="#FFF5B0"/>
</linearGradient>
<linearGradient id="paint3_linear_162_301" x1="459.456" y1="242.841" x2="6968.37" y2="242.841" gradientUnits="userSpaceOnUse">
<stop stop-color="#6B4200"/>
<stop offset="1" stop-color="#A87219"/>
</linearGradient>
<linearGradient id="paint4_linear_162_301" x1="1205.24" y1="957.732" x2="1205.24" y2="573.811" gradientUnits="userSpaceOnUse">
<stop stop-color="#FFD97A"/>
<stop offset="1" stop-color="#EB9E21"/>
</linearGradient>
<linearGradient id="paint5_linear_162_301" x1="1120.2" y1="853.497" x2="1120.2" y2="552.486" gradientUnits="userSpaceOnUse">
<stop stop-color="#E8B048"/>
<stop offset="1" stop-color="#8F6B09"/>
</linearGradient>
<linearGradient id="paint6_linear_162_301" x1="133.489" y1="14.5147" x2="260.962" y2="14.5147" gradientUnits="userSpaceOnUse">
<stop stop-color="#FFDD6E"/>
<stop offset="1" stop-color="#D69705"/>
</linearGradient>
<linearGradient id="paint7_linear_162_301" x1="133.489" y1="18.059" x2="257.895" y2="18.059" gradientUnits="userSpaceOnUse">
<stop stop-color="#BF8800"/>
<stop offset="1" stop-color="#A36808"/>
</linearGradient>
<linearGradient id="paint8_linear_162_301" x1="4.80298" y1="77.9684" x2="4.80298" y2="47.667" gradientUnits="userSpaceOnUse">
<stop stop-color="#E8B048"/>
<stop offset="1" stop-color="#C27C0C"/>
</linearGradient>
<linearGradient id="paint9_linear_162_301" x1="8.17875" y1="74.5169" x2="8.17875" y2="47.665" gradientUnits="userSpaceOnUse">
<stop stop-color="#FFD97A"/>
<stop offset="1" stop-color="#FCBC53"/>
</linearGradient>
<linearGradient id="paint10_linear_162_301" x1="6.03882" y1="80.8185" x2="133.488" y2="80.8185" gradientUnits="userSpaceOnUse">
<stop stop-color="#A36808"/>
<stop offset="1" stop-color="#BF8800"/>
</linearGradient>
<linearGradient id="paint11_linear_162_301" x1="459.456" y1="607.003" x2="6968.37" y2="607.003" gradientUnits="userSpaceOnUse">
<stop stop-color="#D69705"/>
<stop offset="1" stop-color="#FFDD6E"/>
</linearGradient>
<linearGradient id="paint12_linear_162_301" x1="1205.24" y1="1370.62" x2="1205.24" y2="987.313" gradientUnits="userSpaceOnUse">
<stop stop-color="#E8B048"/>
<stop offset="1" stop-color="#C27C0C"/>
</linearGradient>
<linearGradient id="paint13_linear_162_301" x1="1120.2" y1="1181.36" x2="1120.2" y2="880.349" gradientUnits="userSpaceOnUse">
<stop stop-color="#FFD97A"/>
<stop offset="1" stop-color="#FCBC53"/>
</linearGradient>
<linearGradient id="paint14_linear_162_301" x1="133.489" y1="80.8185" x2="260.962" y2="80.8185" gradientUnits="userSpaceOnUse">
<stop stop-color="#A87219"/>
<stop offset="1" stop-color="#6B4200"/>
</linearGradient>
<linearGradient id="paint15_linear_162_301" x1="133.489" y1="77.2493" x2="257.895" y2="77.2493" gradientUnits="userSpaceOnUse">
<stop stop-color="#FFF5B0"/>
<stop offset="1" stop-color="#F5D36C"/>
</linearGradient>
<linearGradient id="paint16_linear_162_301" x1="133.488" y1="79.7633" x2="133.488" y2="15.5434" gradientUnits="userSpaceOnUse">
<stop stop-color="#FAB925"/>
<stop offset="1" stop-color="#FAB925"/>
</linearGradient>
<linearGradient id="paint17_linear_162_301" x1="607.948" y1="307.755" x2="6799.88" y2="307.755" gradientUnits="userSpaceOnUse">
<stop stop-color="#FAB925"/>
<stop offset="1" stop-color="#FAB925"/>
</linearGradient>
<linearGradient id="paint18_linear_162_301" x1="12.4816" y1="47.6654" x2="12.4816" y2="24.2627" gradientUnits="userSpaceOnUse">
<stop stop-color="#FAB925"/>
<stop offset="0.93" stop-color="#FAB925"/>
</linearGradient>
<linearGradient id="paint19_linear_162_301" x1="12.4816" y1="71.0677" x2="12.4816" y2="47.665" gradientUnits="userSpaceOnUse">
<stop stop-color="#FAB925"/>
<stop offset="1" stop-color="white"/>
</linearGradient>
<linearGradient id="paint20_linear_162_301" x1="1230.44" y1="749.982" x2="1230.44" y2="521.337" gradientUnits="userSpaceOnUse">
<stop stop-color="#FAB925"/>
<stop offset="0.93" stop-color="#FAB925"/>
</linearGradient>
<linearGradient id="paint21_linear_162_301" x1="1230.44" y1="1002.03" x2="1230.44" y2="773.385" gradientUnits="userSpaceOnUse">
<stop stop-color="#FAB925"/>
<stop offset="1" stop-color="white"/>
</linearGradient>
<linearGradient id="paint22_linear_162_301" x1="6919.9" y1="307.755" x2="13111.8" y2="307.755" gradientUnits="userSpaceOnUse">
<stop stop-color="#FAB925"/>
<stop offset="1" stop-color="#FAB925"/>
</linearGradient>
<radialGradient id="paint23_radial_162_301" cx="0" cy="0" r="1" gradientUnits="userSpaceOnUse" gradientTransform="translate(44.0291 26.611) scale(176.66 178)">
<stop stop-color="#FAB925"/>
<stop offset="1" stop-color="#000817"/>
</radialGradient>
<radialGradient id="paint24_radial_162_301" cx="0" cy="0" r="1" gradientUnits="userSpaceOnUse" gradientTransform="translate(133.488 7.92666) scale(208.207 209.786)">
<stop stop-color="#000817"/>
<stop offset="1" stop-color="#FAB925"/>
</radialGradient>
<radialGradient id="paint25_radial_162_301" cx="0" cy="0" r="1" gradientUnits="userSpaceOnUse" gradientTransform="translate(133.488 47.6659) scale(119.937 120.846)">
<stop offset="0.59" stop-color="#000817"/>
<stop offset="1" stop-color="#FAB925"/>
</radialGradient>
<radialGradient id="paint26_radial_162_301" cx="0" cy="0" r="1" gradientUnits="userSpaceOnUse" gradientTransform="translate(13232.1 1820.76) scale(14604.2 1600.25)">
<stop stop-color="#FAB925"/>
<stop offset="1" stop-color="#000817"/>
</radialGradient>
<radialGradient id="paint27_radial_162_301" cx="0" cy="0" r="1" gradientUnits="userSpaceOnUse" gradientTransform="translate(12930.2 1456.12) scale(5669.42 1289.61)">
<stop stop-color="#FAB925"/>
<stop offset="1" stop-color="#000817"/>
</radialGradient>
<clipPath id="clip0_162_301">
<rect width="266" height="95.76" fill="white" transform="translate(0.5 0.0439453)"/>
</clipPath>
</defs>
</svg>
