<svg width="266" height="96" viewBox="0 0 266 96" fill="none" xmlns="http://www.w3.org/2000/svg">
<path fill-rule="evenodd" clip-rule="evenodd" d="M3.68487 47.623L8.60595 20.7709L5.53918 17.2976L0 47.623H3.68487Z" fill="url(#paint0_linear_205_311)"/>
<path fill-rule="evenodd" clip-rule="evenodd" d="M8.60568 20.7708L3.68457 47.6228H7.39322L11.6724 24.2201L8.60568 20.7708Z" fill="url(#paint1_linear_205_311)"/>
<path fill-rule="evenodd" clip-rule="evenodd" d="M8.6058 20.7705L133.012 11.8358V8.17084L5.53906 17.2972L8.6058 20.7705Z" fill="url(#paint2_linear_205_311)"/>
<path fill-rule="evenodd" clip-rule="evenodd" d="M133.013 11.8348L8.60645 20.7696L11.6732 24.2189L133.013 15.5237V11.8348Z" fill="url(#paint3_linear_205_311)"/>
<path fill-rule="evenodd" clip-rule="evenodd" d="M262.291 47.6219L257.394 20.7697L260.461 17.2964L266 47.6219H262.291Z" fill="url(#paint4_linear_205_311)"/>
<path fill-rule="evenodd" clip-rule="evenodd" d="M257.394 20.7708L262.291 47.6228H258.606L254.327 24.2201L257.394 20.7708Z" fill="url(#paint5_linear_205_311)"/>
<path fill-rule="evenodd" clip-rule="evenodd" d="M257.395 20.7705L133.013 11.8358V8.17084L260.462 17.2972L257.395 20.7705Z" fill="url(#paint6_linear_205_311)"/>
<path fill-rule="evenodd" clip-rule="evenodd" d="M133.013 11.8348L257.395 20.7696L254.328 24.2189L133.013 15.5237V11.8348Z" fill="url(#paint7_linear_205_311)"/>
<path fill-rule="evenodd" clip-rule="evenodd" d="M3.68487 47.6227L8.60595 74.4746L5.53918 77.9241L0 47.6227H3.68487Z" fill="url(#paint8_linear_205_311)"/>
<path fill-rule="evenodd" clip-rule="evenodd" d="M8.60568 74.4733L3.68457 47.6214H7.39322L11.6724 71.0241L8.60568 74.4733Z" fill="url(#paint9_linear_205_311)"/>
<path fill-rule="evenodd" clip-rule="evenodd" d="M8.6058 74.4747L133.012 83.3857V87.0746L5.53906 77.9242L8.6058 74.4747Z" fill="url(#paint10_linear_205_311)"/>
<path fill-rule="evenodd" clip-rule="evenodd" d="M133.013 83.385L8.60645 74.4742L11.6732 71.025L133.013 79.7203V83.385Z" fill="url(#paint11_linear_205_311)"/>
<path fill-rule="evenodd" clip-rule="evenodd" d="M262.291 47.6214L257.394 74.4733L260.461 77.9228L266 47.6214H262.291Z" fill="url(#paint12_linear_205_311)"/>
<path fill-rule="evenodd" clip-rule="evenodd" d="M257.394 74.4733L262.291 47.6214H258.606L254.327 71.0241L257.394 74.4733Z" fill="url(#paint13_linear_205_311)"/>
<path fill-rule="evenodd" clip-rule="evenodd" d="M257.395 74.4747L133.013 83.3857V87.0746L260.462 77.9242L257.395 74.4747Z" fill="url(#paint14_linear_205_311)"/>
<path fill-rule="evenodd" clip-rule="evenodd" d="M133.013 83.385L257.395 74.4742L254.328 71.025L133.013 79.7203V83.385Z" fill="url(#paint15_linear_205_311)"/>
<g style="mix-blend-mode:screen">
<path fill-rule="evenodd" clip-rule="evenodd" d="M7.34603 27.5964L8.1781 20.8654L5.80078 17.7275L8.67733 20.4103L127.544 11.5954C131.514 11.284 132.156 10.8049 132.893 8.57721L133.392 11.1642L227.987 18.6617L132.893 11.8349L8.5109 20.7696L7.25091 27.5964H7.34603Z" fill="white"/>
</g>
<g style="mix-blend-mode:multiply" opacity="0.75">
<path fill-rule="evenodd" clip-rule="evenodd" d="M135.579 86.4995C134.177 86.4995 133.06 86.2601 133.06 85.3978V87.0746L260.532 77.9242L257.465 74.4747C258.297 76.3673 258.678 77.1337 255.54 77.3733L135.579 86.4995Z" fill="#CA9E67"/>
</g>
<path fill-rule="evenodd" clip-rule="evenodd" d="M133.012 79.7194L254.327 71.0242L258.607 47.6215L254.327 24.2187L133.012 15.5235L11.6727 24.2187L7.39355 47.6215L11.6727 71.0242L133.012 79.7194Z" fill="url(#paint16_linear_205_311)"/>
<path fill-rule="evenodd" clip-rule="evenodd" d="M133.012 73.8514L249.43 65.4919L252.687 47.6222L249.43 29.729L133.012 21.393L16.5704 29.729L13.3135 47.6222L16.5704 65.4919L133.012 73.8514Z" fill="#FFCB05"/>
<path fill-rule="evenodd" clip-rule="evenodd" d="M133.012 21.3921V15.5235L11.6729 24.2187L16.5702 29.7279L133.012 21.3921Z" fill="url(#paint17_linear_205_311)"/>
<path style="mix-blend-mode:screen" opacity="0.5" fill-rule="evenodd" clip-rule="evenodd" d="M13.3131 47.6218L16.5701 29.7286L11.6727 24.2191L7.39355 47.6218H13.3131Z" fill="url(#paint18_linear_205_311)"/>
<path style="mix-blend-mode:multiply" fill-rule="evenodd" clip-rule="evenodd" d="M16.5701 65.4907L13.3131 47.6214H7.39355L11.6727 71.0241L16.5701 65.4907Z" fill="url(#paint19_linear_205_311)"/>
<path style="mix-blend-mode:screen" opacity="0.5" fill-rule="evenodd" clip-rule="evenodd" d="M252.688 47.6218L249.431 29.7286L254.328 24.2191L258.607 47.6218H252.688Z" fill="url(#paint20_linear_205_311)"/>
<path style="mix-blend-mode:multiply" fill-rule="evenodd" clip-rule="evenodd" d="M249.431 65.4907L252.688 47.6214H258.607L254.328 71.0241L249.431 65.4907Z" fill="url(#paint21_linear_205_311)"/>
<path fill-rule="evenodd" clip-rule="evenodd" d="M133.013 21.3921V15.5235L254.328 24.2187L249.431 29.7279L133.013 21.3921Z" fill="url(#paint22_linear_205_311)"/>
<g style="mix-blend-mode:multiply">
<path fill-rule="evenodd" clip-rule="evenodd" d="M133.012 73.8506V79.7193L11.6729 71.0241L16.5702 65.4907L133.012 73.8506Z" fill="#F9AF1E"/>
</g>
<g style="mix-blend-mode:multiply">
<path fill-rule="evenodd" clip-rule="evenodd" d="M133.013 73.8506V79.7193L254.328 71.0241L249.431 65.4907L133.013 73.8506Z" fill="#F9AF1E"/>
</g>
<path style="mix-blend-mode:screen" fill-rule="evenodd" clip-rule="evenodd" d="M13.931 44.2684L15.8091 29.8004L12.3857 25.0097L16.9027 29.0101L132.037 19.8597L133.012 15.9313L133.868 19.8357L241.49 29.1537L133.012 21.3927L16.5699 29.7285L13.931 44.2684Z" fill="url(#paint23_radial_205_311)"/>
<path style="mix-blend-mode:screen" fill-rule="evenodd" clip-rule="evenodd" d="M252.687 47.6222L249.43 29.729L133.012 21.393L16.5704 29.729L13.3135 47.6222H252.687Z" fill="url(#paint24_radial_205_311)"/>
<g style="mix-blend-mode:screen">
<path style="mix-blend-mode:screen" fill-rule="evenodd" clip-rule="evenodd" d="M14.5965 47.8133L95.1646 47.6215L14.6441 47.43C14.0022 47.43 13.6932 47.2143 13.812 46.5198L14.7154 40.1959L13.3604 47.6215L14.7154 55.0472L13.812 48.7233C13.6456 48.0288 13.9546 47.8133 14.5965 47.8133ZM251.332 54.9993L252.687 47.5737L251.332 40.148L252.235 46.4719C252.235 47.1664 252.045 47.3821 251.379 47.3821L170.883 47.6215L251.379 47.8133C252.045 47.8133 252.33 48.0288 252.235 48.7233L251.332 54.9993Z" fill="url(#paint25_radial_205_311)"/>
</g>
<path style="mix-blend-mode:screen" fill-rule="evenodd" clip-rule="evenodd" d="M133.012 47.6222V21.393L16.5704 29.729L13.3135 47.6222H252.687H133.012Z" fill="url(#paint26_radial_205_311)"/>
<g style="mix-blend-mode:screen" opacity="0.5">
<path fill-rule="evenodd" clip-rule="evenodd" d="M133.012 47.6214V73.8506L249.43 65.4907L252.687 47.6214H13.3135H133.012Z" fill="#FFCB05"/>
</g>
<path style="mix-blend-mode:screen" fill-rule="evenodd" clip-rule="evenodd" d="M117.392 72.7255L132.393 74.5221L133.011 79.193L133.51 74.4742L249.405 66.1143L253.447 70.0429L250.023 65.4916L252.567 48.245L249.429 65.4916L133.011 73.8515L117.392 72.7255Z" fill="url(#paint27_radial_205_311)"/>
<defs>
<linearGradient id="paint0_linear_205_311" x1="4.30297" y1="47.623" x2="4.30297" y2="17.2976" gradientUnits="userSpaceOnUse">
<stop stop-color="#FFD97A"/>
<stop offset="1" stop-color="#EB9E21"/>
</linearGradient>
<linearGradient id="paint1_linear_205_311" x1="7.67851" y1="47.6228" x2="7.67851" y2="20.7708" gradientUnits="userSpaceOnUse">
<stop stop-color="#E8B048"/>
<stop offset="1" stop-color="#8F6B09"/>
</linearGradient>
<linearGradient id="paint2_linear_205_311" x1="5.53906" y1="14.4706" x2="132.988" y2="14.4706" gradientUnits="userSpaceOnUse">
<stop stop-color="#F5D36C"/>
<stop offset="1" stop-color="#FFF5B0"/>
</linearGradient>
<linearGradient id="paint3_linear_205_311" x1="458.956" y1="242.797" x2="6967.87" y2="242.797" gradientUnits="userSpaceOnUse">
<stop stop-color="#6B4200"/>
<stop offset="1" stop-color="#A87219"/>
</linearGradient>
<linearGradient id="paint4_linear_205_311" x1="1204.74" y1="957.687" x2="1204.74" y2="573.767" gradientUnits="userSpaceOnUse">
<stop stop-color="#FFD97A"/>
<stop offset="1" stop-color="#EB9E21"/>
</linearGradient>
<linearGradient id="paint5_linear_205_311" x1="1119.7" y1="853.453" x2="1119.7" y2="552.443" gradientUnits="userSpaceOnUse">
<stop stop-color="#E8B048"/>
<stop offset="1" stop-color="#8F6B09"/>
</linearGradient>
<linearGradient id="paint6_linear_205_311" x1="132.989" y1="14.4706" x2="260.462" y2="14.4706" gradientUnits="userSpaceOnUse">
<stop stop-color="#FFDD6E"/>
<stop offset="1" stop-color="#D69705"/>
</linearGradient>
<linearGradient id="paint7_linear_205_311" x1="132.989" y1="18.0149" x2="257.395" y2="18.0149" gradientUnits="userSpaceOnUse">
<stop stop-color="#BF8800"/>
<stop offset="1" stop-color="#A36808"/>
</linearGradient>
<linearGradient id="paint8_linear_205_311" x1="4.30298" y1="77.9241" x2="4.30298" y2="47.6227" gradientUnits="userSpaceOnUse">
<stop stop-color="#E8B048"/>
<stop offset="1" stop-color="#C27C0C"/>
</linearGradient>
<linearGradient id="paint9_linear_205_311" x1="7.67851" y1="74.4733" x2="7.67851" y2="47.6214" gradientUnits="userSpaceOnUse">
<stop stop-color="#FFD97A"/>
<stop offset="1" stop-color="#FCBC53"/>
</linearGradient>
<linearGradient id="paint10_linear_205_311" x1="5.53906" y1="80.7747" x2="132.988" y2="80.7747" gradientUnits="userSpaceOnUse">
<stop stop-color="#A36808"/>
<stop offset="1" stop-color="#BF8800"/>
</linearGradient>
<linearGradient id="paint11_linear_205_311" x1="458.956" y1="606.958" x2="6967.87" y2="606.958" gradientUnits="userSpaceOnUse">
<stop stop-color="#D69705"/>
<stop offset="1" stop-color="#FFDD6E"/>
</linearGradient>
<linearGradient id="paint12_linear_205_311" x1="1204.74" y1="1370.58" x2="1204.74" y2="987.269" gradientUnits="userSpaceOnUse">
<stop stop-color="#E8B048"/>
<stop offset="1" stop-color="#C27C0C"/>
</linearGradient>
<linearGradient id="paint13_linear_205_311" x1="1119.7" y1="1181.32" x2="1119.7" y2="880.305" gradientUnits="userSpaceOnUse">
<stop stop-color="#FFD97A"/>
<stop offset="1" stop-color="#FCBC53"/>
</linearGradient>
<linearGradient id="paint14_linear_205_311" x1="132.989" y1="80.7747" x2="260.462" y2="80.7747" gradientUnits="userSpaceOnUse">
<stop stop-color="#A87219"/>
<stop offset="1" stop-color="#6B4200"/>
</linearGradient>
<linearGradient id="paint15_linear_205_311" x1="132.989" y1="77.205" x2="257.395" y2="77.205" gradientUnits="userSpaceOnUse">
<stop stop-color="#FFF5B0"/>
<stop offset="1" stop-color="#F5D36C"/>
</linearGradient>
<linearGradient id="paint16_linear_205_311" x1="132.988" y1="79.7194" x2="132.988" y2="15.4996" gradientUnits="userSpaceOnUse">
<stop stop-color="#FAB925"/>
<stop offset="1" stop-color="#FAB925"/>
</linearGradient>
<linearGradient id="paint17_linear_205_311" x1="607.448" y1="307.711" x2="6799.38" y2="307.711" gradientUnits="userSpaceOnUse">
<stop stop-color="#FAB925"/>
<stop offset="1" stop-color="#FAB925"/>
</linearGradient>
<linearGradient id="paint18_linear_205_311" x1="11.9818" y1="47.6218" x2="11.9818" y2="24.2191" gradientUnits="userSpaceOnUse">
<stop stop-color="#FAB925"/>
<stop offset="0.93" stop-color="#FAB925"/>
</linearGradient>
<linearGradient id="paint19_linear_205_311" x1="11.9818" y1="71.0241" x2="11.9818" y2="47.6214" gradientUnits="userSpaceOnUse">
<stop stop-color="#FAB925"/>
<stop offset="1" stop-color="white"/>
</linearGradient>
<linearGradient id="paint20_linear_205_311" x1="1229.94" y1="749.939" x2="1229.94" y2="521.293" gradientUnits="userSpaceOnUse">
<stop stop-color="#FAB925"/>
<stop offset="0.93" stop-color="#FAB925"/>
</linearGradient>
<linearGradient id="paint21_linear_205_311" x1="1229.94" y1="1001.99" x2="1229.94" y2="773.341" gradientUnits="userSpaceOnUse">
<stop stop-color="#FAB925"/>
<stop offset="1" stop-color="white"/>
</linearGradient>
<linearGradient id="paint22_linear_205_311" x1="6919.4" y1="307.711" x2="13111.3" y2="307.711" gradientUnits="userSpaceOnUse">
<stop stop-color="#FAB925"/>
<stop offset="1" stop-color="#FAB925"/>
</linearGradient>
<radialGradient id="paint23_radial_205_311" cx="0" cy="0" r="1" gradientUnits="userSpaceOnUse" gradientTransform="translate(43.5288 26.5667) scale(176.66 178)">
<stop stop-color="#FAB925"/>
<stop offset="1" stop-color="#000817"/>
</radialGradient>
<radialGradient id="paint24_radial_205_311" cx="0" cy="0" r="1" gradientUnits="userSpaceOnUse" gradientTransform="translate(132.988 7.88315) scale(208.207 209.786)">
<stop stop-color="#000817"/>
<stop offset="1" stop-color="#FAB925"/>
</radialGradient>
<radialGradient id="paint25_radial_205_311" cx="0" cy="0" r="1" gradientUnits="userSpaceOnUse" gradientTransform="translate(132.988 47.6215) scale(119.937 120.846)">
<stop offset="0.59" stop-color="#000817"/>
<stop offset="1" stop-color="#FAB925"/>
</radialGradient>
<radialGradient id="paint26_radial_205_311" cx="0" cy="0" r="1" gradientUnits="userSpaceOnUse" gradientTransform="translate(13231.6 1820.72) scale(14604.2 1600.25)">
<stop stop-color="#FAB925"/>
<stop offset="1" stop-color="#000817"/>
</radialGradient>
<radialGradient id="paint27_radial_205_311" cx="0" cy="0" r="1" gradientUnits="userSpaceOnUse" gradientTransform="translate(12929.7 1456.08) scale(5669.42 1289.61)">
<stop stop-color="#FAB925"/>
<stop offset="1" stop-color="#000817"/>
</radialGradient>
</defs>
</svg>
