<svg width="96" height="96" viewBox="0 0 96 96" fill="none" xmlns="http://www.w3.org/2000/svg">
<path d="M82.5111 10.7981L52.8965 32.7933L58.3729 19.8164L82.5111 10.7981Z" fill="#E2761B" stroke="#E2761B" stroke-width="0.414088" stroke-linecap="round" stroke-linejoin="round"/>
<path d="M14.1445 10.7985L43.521 33.002L38.3124 19.8168L14.1445 10.7985Z" fill="#E4761B" stroke="#E4761B" stroke-width="0.414088" stroke-linecap="round" stroke-linejoin="round"/>
<path d="M71.8561 61.783L63.9688 73.8669L80.8446 78.51L85.696 62.0508L71.8561 61.783Z" fill="#E4761B" stroke="#E4761B" stroke-width="0.414088" stroke-linecap="round" stroke-linejoin="round"/>
<path d="M11.0195 62.0508L15.8412 78.51L32.717 73.8669L24.8297 61.783L11.0195 62.0508Z" fill="#E4761B" stroke="#E4761B" stroke-width="0.414088" stroke-linecap="round" stroke-linejoin="round"/>
<path d="M31.7632 41.3655L27.0605 48.479L43.8173 49.223L43.2221 31.2162L31.7632 41.3655Z" fill="#E4761B" stroke="#E4761B" stroke-width="0.414088" stroke-linecap="round" stroke-linejoin="round"/>
<path d="M64.8911 41.3658L53.2834 31.0081L52.8965 49.2233L69.6235 48.4792L64.8911 41.3658Z" fill="#E4761B" stroke="#E4761B" stroke-width="0.414088" stroke-linecap="round" stroke-linejoin="round"/>
<path d="M32.7168 73.8667L42.7768 68.9557L34.0859 62.1697L32.7168 73.8667Z" fill="#E4761B" stroke="#E4761B" stroke-width="0.414088" stroke-linecap="round" stroke-linejoin="round"/>
<path d="M53.8789 68.9557L63.9687 73.8667L62.5698 62.1697L53.8789 68.9557Z" fill="#E4761B" stroke="#E4761B" stroke-width="0.414088" stroke-linecap="round" stroke-linejoin="round"/>
<path d="M63.9707 73.8666L53.8809 68.9557L54.6845 75.5334L54.5952 78.3014L63.9707 73.8666Z" fill="#D7C1B3" stroke="#D7C1B3" stroke-width="0.414088" stroke-linecap="round" stroke-linejoin="round"/>
<path d="M32.7188 73.867L42.0942 78.3017L42.0347 75.5337L42.7788 68.956L32.7188 73.867Z" fill="#D7C1B3" stroke="#D7C1B3" stroke-width="0.414088" stroke-linecap="round" stroke-linejoin="round"/>
<path d="M42.2409 57.8245L33.8477 55.3541L39.7706 52.6457L42.2409 57.8245Z" fill="#233447" stroke="#233447" stroke-width="0.414088" stroke-linecap="round" stroke-linejoin="round"/>
<path d="M54.4141 57.8245L56.8844 52.6457L62.8371 55.3541L54.4141 57.8245Z" fill="#233447" stroke="#233447" stroke-width="0.414088" stroke-linecap="round" stroke-linejoin="round"/>
<path d="M32.7174 73.8669L34.146 61.7829L24.8301 62.0508L32.7174 73.8669Z" fill="#CD6116" stroke="#CD6116" stroke-width="0.414088" stroke-linecap="round" stroke-linejoin="round"/>
<path d="M62.541 61.7829L63.9697 73.8669L71.857 62.0508L62.541 61.7829Z" fill="#CD6116" stroke="#CD6116" stroke-width="0.414088" stroke-linecap="round" stroke-linejoin="round"/>
<path d="M69.6235 48.4786L52.8965 49.2227L54.4442 57.8243L56.9145 52.6455L62.8672 55.3539L69.6235 48.4786Z" fill="#CD6116" stroke="#CD6116" stroke-width="0.414088" stroke-linecap="round" stroke-linejoin="round"/>
<path d="M33.8486 55.3539L39.8012 52.6455L42.2418 57.8243L43.8193 49.2227L27.0625 48.4786L33.8486 55.3539Z" fill="#CD6116" stroke="#CD6116" stroke-width="0.414088" stroke-linecap="round" stroke-linejoin="round"/>
<path d="M27.0605 48.4786L34.0847 62.1697L33.8466 55.3539L27.0605 48.4786Z" fill="#E4751F" stroke="#E4751F" stroke-width="0.414088" stroke-linecap="round" stroke-linejoin="round"/>
<path d="M62.864 55.3539L62.5664 62.1697L69.6203 48.4786L62.864 55.3539Z" fill="#E4751F" stroke="#E4751F" stroke-width="0.414088" stroke-linecap="round" stroke-linejoin="round"/>
<path d="M43.8157 49.2222L42.2383 57.8238L44.2027 67.9732L44.6491 54.6094L43.8157 49.2222Z" fill="#E4751F" stroke="#E4751F" stroke-width="0.414088" stroke-linecap="round" stroke-linejoin="round"/>
<path d="M52.8954 49.2222L52.0918 54.5796L52.449 67.9732L54.4431 57.8238L52.8954 49.2222Z" fill="#E4751F" stroke="#E4751F" stroke-width="0.414088" stroke-linecap="round" stroke-linejoin="round"/>
<path d="M54.4434 57.8242L52.4492 67.9735L53.8779 68.9557L62.5688 62.1696L62.8664 55.3538L54.4434 57.8242Z" fill="#F6851B" stroke="#F6851B" stroke-width="0.414088" stroke-linecap="round" stroke-linejoin="round"/>
<path d="M33.8477 55.3538L34.0858 62.1696L42.7767 68.9557L44.2053 67.9735L42.2409 57.8242L33.8477 55.3538Z" fill="#F6851B" stroke="#F6851B" stroke-width="0.414088" stroke-linecap="round" stroke-linejoin="round"/>
<path d="M54.5929 78.3019L54.6822 75.5339L53.9381 74.8791H42.7173L42.0327 75.5339L42.0923 78.3019L32.7168 73.8671L35.9908 76.5458L42.628 81.1592H54.0274L60.6944 76.5458L63.9684 73.8671L54.5929 78.3019Z" fill="#C0AD9E" stroke="#C0AD9E" stroke-width="0.414088" stroke-linecap="round" stroke-linejoin="round"/>
<path d="M53.879 68.9562L52.4504 67.974H44.2059L42.7773 68.9562L42.0332 75.5339L42.7178 74.8791H53.9386L54.6826 75.5339L53.879 68.9562Z" fill="#161616" stroke="#161616" stroke-width="0.414088" stroke-linecap="round" stroke-linejoin="round"/>
<path d="M83.7614 34.2218L86.2912 22.0784L82.5113 10.798L53.8789 32.0491L64.8914 41.3651L80.4576 45.9189L83.9102 41.9008L82.422 40.8293L84.8031 38.6566L82.9577 37.2279L85.3388 35.4124L83.7614 34.2218Z" fill="#763D16" stroke="#763D16" stroke-width="0.414088" stroke-linecap="round" stroke-linejoin="round"/>
<path d="M10.3945 22.0784L12.9244 34.2219L11.3172 35.4124L13.6983 37.228L11.8827 38.6566L14.2638 40.8294L12.7756 41.9009L16.1984 45.9189L31.7647 41.3651L42.7771 32.0492L14.1447 10.7981L10.3945 22.0784Z" fill="#763D16" stroke="#763D16" stroke-width="0.414088" stroke-linecap="round" stroke-linejoin="round"/>
<path d="M80.4581 45.9194L64.8919 41.3656L69.6242 48.479L62.5703 62.1702L71.8565 62.0511H85.6965L80.4581 45.9194Z" fill="#F6851B" stroke="#F6851B" stroke-width="0.414088" stroke-linecap="round" stroke-linejoin="round"/>
<path d="M31.7646 41.3656L16.1984 45.9194L11.0195 62.0511H24.8297L34.0862 62.1702L27.062 48.479L31.7646 41.3656Z" fill="#F6851B" stroke="#F6851B" stroke-width="0.414088" stroke-linecap="round" stroke-linejoin="round"/>
<path d="M52.8966 49.2231L53.8788 32.0496L58.4028 19.8168H38.3125L42.777 32.0496L43.8187 49.2231L44.1759 54.64L44.2057 67.974H52.4501L52.5096 54.64L52.8966 49.2231Z" fill="#F6851B" stroke="#F6851B" stroke-width="0.414088" stroke-linecap="round" stroke-linejoin="round"/>
</svg>
