<svg width="98" height="61" viewBox="0 0 98 61" fill="none" xmlns="http://www.w3.org/2000/svg">
<path d="M20.5344 12.4686C36.3978 -3.06543 62.1246 -3.06543 77.9859 12.4686L79.886 14.337C80.0745 14.5195 80.2243 14.738 80.3267 14.9795C80.429 15.2211 80.4817 15.4807 80.4817 15.7431C80.4817 16.0054 80.429 16.265 80.3267 16.5066C80.2243 16.7481 80.0745 16.9666 79.886 17.1491L73.354 23.546C73.1612 23.7317 72.9039 23.8355 72.6362 23.8355C72.3685 23.8355 72.1112 23.7317 71.9184 23.546L69.29 20.9724C58.2232 10.1358 40.2782 10.1358 29.2114 20.9724L26.4056 23.7212C26.2134 23.9079 25.9559 24.0124 25.6878 24.0124C25.4198 24.0124 25.1623 23.9079 24.97 23.7212L18.4359 17.3243C18.2475 17.1419 18.0976 16.9234 17.9953 16.6818C17.8929 16.4403 17.8402 16.1806 17.8402 15.9183C17.8402 15.656 17.8929 15.3963 17.9953 15.1548C18.0976 14.9132 18.2475 14.6947 18.4359 14.5122L20.5344 12.4686ZM91.4932 25.693L97.3053 31.3932C97.4938 31.5757 97.6436 31.7942 97.746 32.0357C97.8483 32.2773 97.9011 32.5369 97.9011 32.7993C97.9011 33.0616 97.8483 33.3212 97.746 33.5628C97.6436 33.8043 97.4938 34.0228 97.3053 34.2053L71.095 59.854C70.7101 60.2276 70.1948 60.4366 69.6584 60.4366C69.122 60.4366 68.6066 60.2276 68.2217 59.854V59.854L49.618 41.6409C49.5219 41.5475 49.3931 41.4953 49.2591 41.4953C49.1251 41.4953 48.9964 41.5475 48.9002 41.6409V41.6409L30.2965 59.854C29.912 60.2275 29.397 60.4364 28.8609 60.4364C28.3249 60.4364 27.8099 60.2275 27.4253 59.854V59.854L1.21295 34.1905C1.02448 34.0081 0.87462 33.7895 0.772274 33.548C0.669928 33.3065 0.617188 33.0468 0.617188 32.7845C0.617188 32.5222 0.669928 32.2625 0.772274 32.021C0.87462 31.7794 1.02448 31.5609 1.21295 31.3784L7.02502 25.6783C7.40993 25.3046 7.92525 25.0956 8.46168 25.0956C8.99811 25.0956 9.51343 25.3046 9.89834 25.6783L28.502 43.8935C28.5982 43.9869 28.7269 44.0391 28.8609 44.0391C28.995 44.0391 29.1237 43.9869 29.2198 43.8935V43.8935L47.8235 25.6783C48.2081 25.3048 48.723 25.0958 49.2591 25.0958C49.7952 25.0958 50.3102 25.3048 50.6947 25.6783V25.6783L69.2984 43.8935C69.3946 43.9869 69.5233 44.0391 69.6573 44.0391C69.7913 44.0391 69.9201 43.9869 70.0162 43.8935L88.6199 25.6783C89.0059 25.3058 89.5219 25.0983 90.0583 25.0999C90.5947 25.1014 91.1094 25.3119 91.4932 25.6867V25.693Z" fill="#6094CE"/>
</svg>
